<?xml version="1.0" encoding="utf-8"?>
<!-- Generator: Adobe Illustrator 24.0.1, SVG Export Plug-In . SVG Version: 6.00 Build 0)  -->
<svg version="1.1" id="Layer_2" xmlns="http://www.w3.org/2000/svg" xmlns:xlink="http://www.w3.org/1999/xlink" x="0px" y="0px"
	 viewBox="0 0 160.8 42.9" style="enable-background:new 0 0 160.8 42.9;" xml:space="preserve">
<style type="text/css">
	.st0{fill:#FFFFFF;}
</style>
<title>logo</title>
<g>
	<path class="st0" d="M80.1,29.7c1.6,0.2,2-0.1,2-1.7c0-1.6,0-3.3,0-4.9c0-0.5-0.2-0.7-0.7-0.7c-1.7,0-3.3,0-5.1,0
		c0,1.7,0,3.3,0,4.9c0,0.2,0,0.5,0,0.7c0,1.6,0.4,1.9,2.1,1.7c-0.1,0.3-0.1,0.7-0.3,0.9c-0.2,0.3-0.6,0.5-0.9,0.5
		c-1.4,0-2.8-0.1-4.2-0.2c-0.2,0-0.4,0-0.6,0.1c-0.8,0.3-1.5,0.2-2.2-0.2c-0.3-0.2-0.5-0.6-0.7-0.9c0.1-0.1,0.1-0.1,0.2-0.2
		c0.1,0,0.2,0,0.3,0c1.3,0.2,1.9-0.3,1.9-1.7c0-1.4,0-2.8,0-4.1c0-1.2,0-2.2-1.5-2.7c0.3-0.2,0.4-0.3,0.6-0.4c0.6-0.4,0.9-1,0.9-1.7
		c0-1.4,0-2.8,0-4.2c0-1.1-0.6-1.7-1.8-1.6c-0.1,0-0.3,0-0.5,0.1c-0.2-0.5,0-1,0.4-1.1c0.7-0.2,1.4-0.2,2.1-0.3
		c0.1,0,0.2,0.1,0.3,0.1c1.2,0,2.3,0,3.5-0.1c0.5,0,1.1-0.1,1.6,0c0.6,0.2,1,0.6,0.8,1.3c-0.3,0-0.6-0.1-0.9-0.1
		c-0.6,0-1.1,0.4-1.1,1c0,2.1,0,4.2,0,6.3c1.9,0,3.8,0,5.7,0c0-0.3,0-0.5,0.1-0.8c0-1.6,0-3.2,0-4.7c0-1.6-0.4-1.9-2.2-1.7
		c0.2-0.4,0.3-0.8,0.5-1.1c0.2-0.2,0.5-0.4,0.8-0.4c1.4,0,2.8,0.1,4.2,0.2c0.2,0,0.4-0.1,0.6-0.1c0.7,0,1.4,0,2.1,0.2
		c0.5,0.1,0.7,0.5,0.6,1c-0.1,0-0.1,0.1-0.2,0.1c-1.8-0.2-2.1,0.2-2.1,2c0,1.1,0,2.2,0,3.3c0,1.1,0.2,2,1.4,2.5
		c-0.2,0.2-0.3,0.3-0.5,0.4c-0.7,0.3-0.9,0.9-0.9,1.7c0,1.7,0,3.4,0,5c0,1.3,0.6,1.8,1.8,1.6c0.1,0,0.2,0,0.4,0c0.2,0.6,0,1-0.5,1.1
		C87.6,31,86.9,31,86.2,31c-0.3,0-0.7,0-1,0c-1.4,0-2.8,0.1-4.2,0C80.4,31,80,30.5,80.1,29.7z M83.5,27.5c0.1,0,0.2,0,0.4-0.1
		c0-1.6,0-3.1,0-4.7c0-0.6,0.3-1.1,0.4-1.8c-1-1.5-0.2-3.5-0.7-5.3c-0.2,0.3-0.4,0.6-0.4,1c-0.1,1.4-0.1,2.8-0.1,4.3
		c0,1.6,0,3.2,0,4.8C83.2,26.4,83.4,27,83.5,27.5z M73.2,27.4c0.1,0,0.2,0,0.3,0c0.1-0.5,0.3-1,0.3-1.5c0.1-2,0.1-3.9,0.1-5.9
		c0-1,0-2.1-0.1-3.1c0-0.4-0.2-0.8-0.4-1.1c-0.1,0-0.2,0-0.4,0.1c0,1.2,0,2.5,0,3.7c0,0.5-0.3,1.1-0.4,1.6c0.1,0.5,0.4,1,0.4,1.5
		c0.1,1.1,0.1,2.3,0.1,3.4C73.2,26.5,73.2,27,73.2,27.4z"/>
	<path class="st0" d="M110.9,13.2c0.2-0.3,0.3-0.7,0.6-0.9c0.3-0.2,0.9-0.5,1.2-0.4c1.4,0.5,2.7-0.4,4.1,0.2c0.2,0.1,0.4,0,0.7-0.1
		c1.7-0.4,3.3-0.4,5,0c2.5,0.5,4.2,2,5.1,4.4c0.3,0.8,0.5,1.7,0.7,2.6c0.1,0.9,0.3,1.7,1.4,2.1c-1.2,0.4-1.3,1.4-1.4,2.3
		c-0.1,0.7-0.2,1.4-0.5,2.1c-1.7,5.2-6.4,6.3-10,5.5c-0.3-0.1-0.7,0-1.1,0c0,0-0.1,0-0.1,0c-1.4,0-2.8,0-4.2,0
		c-0.9,0-1.2-0.5-1.2-1.3c0.1,0,0.2,0,0.3,0c1.3,0.2,1.9-0.3,1.9-1.6c0-1.4,0-2.8,0-4.1c0-1.2,0-2.3-1.6-2.8
		c1.7-0.5,1.7-1.7,1.6-2.9c0-1.1,0-2.2,0-3.2c0-1.3-0.6-1.8-1.9-1.6c-0.1,0-0.2,0-0.3,0C111,13.3,110.9,13.3,110.9,13.2z M122,21.2
		c1-0.7,1.2-1,1.2-1.8c0-1.4-0.3-2.7-1-4c-0.8-1.4-1.9-2.1-3.5-2c-0.7,0-0.9,0.2-0.9,1c0,4.6,0,9.2,0,13.8c0,0.9,0.3,1.2,1.2,1.3
		c1.6,0.2,3-0.5,3.5-2.1c0.4-1.4,0.6-2.8,0.8-4.3C123.4,22.4,123.2,21.6,122,21.2z M124.5,21.2c0.1,0.4,0.4,0.9,0.3,1.4
		c-0.2,1.5-0.4,3-0.6,4.4c0,0.2-0.1,0.4-0.1,0.5c0.1,0,0.1,0.1,0.2,0.1c0.2-0.3,0.5-0.6,0.6-0.9c0.3-1.3,0.7-2.5,0.8-3.8
		c0.2-2.1,0.2-4.2-0.7-6.1c-0.2-0.4-0.5-0.7-0.7-1.1c-0.1,0-0.1,0.1-0.2,0.1c0.1,0.3,0.2,0.5,0.2,0.8c0.2,1.1,0.4,2.2,0.6,3.3
		C124.8,20.3,124.6,20.7,124.5,21.2z M114,21.2c0.1,0.4,0.4,0.8,0.4,1.3c0.1,1.2,0.1,2.4,0.1,3.6c0,0.5,0,0.9,0,1.4
		c0.1,0,0.2,0,0.2,0c0.1-0.2,0.3-0.5,0.3-0.7c0-3.4,0-6.8,0-10.3c0-0.3-0.2-0.5-0.4-0.8c-0.1,0-0.2,0.1-0.3,0.1c0,1.2,0,2.5,0,3.7
		C114.4,20.1,114.1,20.6,114,21.2z"/>
	<path class="st0" d="M16.6,17.1c-0.3,0.4-0.7,0.8-1.4,0.7c-0.2,0-0.5,0.2-0.6,0.4c-0.5,0.6-1.1,0.9-1.9,0.8
		c0.1-0.4,0.1-0.8,0.2-1.2c-1.4-0.5-1.5-0.6-1.6-1.3c0.4-0.1,0.8-0.2,1.2-0.4c0.8-0.5,0.9-1.4,0.1-2c-1.3-0.9-2.8-1-4.2-0.5
		c-1.2,0.4-1.7,1.5-1.8,2.7c-0.1,1-0.2,2,0,3c0.1,0.7,0.6,1.3,0.9,2c-1,0.5-1,1.6-1,2.8c0,1.2,0,2.3,0.1,3.5c0.2,1.6,1.4,2.3,2.9,2
		c0.9-0.2,1.5-0.9,1.5-2c0.1-0.9,0.1-1.9,0-2.8c0-0.2-0.3-0.5-0.6-0.6c-0.2-0.1-0.5,0-0.7,0.1c-0.3-1,0.4-1.7,1.4-1.4
		c0.6,0.1,1.1,0.2,1.7,0c0,0,0.1,0,0.1,0c0.9,0.1,1.8,0.1,2.7,0c0.9-0.1,1.4,0.6,1.2,1.4c-1.3-0.1-1.6,0.2-1.6,1.6
		c0,0.8,0,1.7,0,2.5c0,1.3,0.3,1.6,1.6,1.4c0.3,0.6-0.1,1-0.6,1.2c-0.9,0.4-1.8,0.3-2.7,0c-0.3-0.1-0.8-0.2-1.1-0.1
		c-1.6,0.4-3.2,0.6-4.8,0.3c-3.6-0.6-6-3.4-6.6-7.3c-0.2-1.6-0.3-1.7-1.2-2.7c0.8-0.6,1-1.4,1.2-2.3c0.6-3.9,3.5-6.6,7.4-6.9
		c1.5-0.1,2.9-0.1,4.3,0.5c1.5,0.6,2.6,1.7,3,3.4C16.1,16.1,16.4,16.5,16.6,17.1z M3.8,27.6c0.1,0,0.3-0.1,0.4-0.1
		c-0.7-1.9-1.1-3.9-1-5.8c0.1-2,0.4-3.9,0.6-6c-0.2,0.4-0.6,0.8-0.7,1.2c-0.3,0.9-0.5,1.9-0.7,2.8c-0.1,0.5-0.3,1-0.5,1.5
		c0.1,0.3,0.3,0.7,0.4,1.1c0.2,1.1,0.3,2.2,0.6,3.2C3.2,26.2,3.5,26.9,3.8,27.6z M12.6,24.9c0,1.2,0,2.2,0,3.4
		C13.4,27.4,13.4,25.7,12.6,24.9z"/>
	<path class="st0" d="M23.6,13.7c-0.2-0.9,0.1-1.6,1-1.7c0.7,0,1.4,0.3,2.1,0.3c0.7,0,1.4-0.4,2.1-0.3c0.7,0.1,1.2,0.2,1.8,0
		c0.5-0.1,1-0.1,1.5,0c0.6,0.1,0.9,0.5,0.8,1.2c-0.1,0-0.1,0.1-0.1,0.1c-1.5-0.1-1.9,0.4-1.4,1.8c0.3,1.1,0.7,2.1,1,3.2
		c0.3,1.3,0.9,2.4,2.2,2.7c-0.3,0.4-0.8,0.8-0.9,1.3c-0.1,0.4,0.2,1,0.3,1.4c0.5,1.5,1.1,3,1.6,4.4c0.6,1.5,0.8,1.7,2.3,1.5
		c0.2,0.9-0.3,1.6-1.3,1.5c-1-0.1-2,0-3,0c-0.8,0-1.7-0.1-2.5,0c-1.2,0.2-1.8-0.5-1.7-1.4c0,0,0.1-0.1,0.1-0.1
		c1.5,0.3,1.7,0.1,1.3-1.3c-0.6-2-0.6-2-2.7-2c-1.3,0-2.7,0-4,0c-0.4,0-0.6,0.1-0.7,0.5c-0.1,0.5-0.3,1-0.4,1.5
		c-0.3,0.9,0.1,1.4,1,1.4c0.3,0,0.7-0.1,1-0.1c0.3,0.9-0.2,1.5-1.3,1.5c-1,0-2-0.2-3-0.2c-0.3,0-0.6,0.2-0.9,0.2
		c-1,0.1-1.6-0.5-1.4-1.4c0.2,0,0.5,0.1,0.7,0.1c0.9,0.1,1.4-0.2,1.6-1.1c0.6-1.7,1.1-3.4,1.7-5.1c0.3-1,0.4-1.9-0.7-2.5
		c1.5-0.5,2-1.7,2.4-3c0.3-1.1,0.7-2.2,1-3.3c0.3-0.9-0.1-1.4-1.1-1.2C24,13.6,23.8,13.6,23.6,13.7z M27,15.5c-0.1,0-0.1,0-0.2,0
		c-0.9,3-1.8,6-2.7,9.1c1.9,0,3.7,0,5.6,0C28.8,21.5,27.9,18.5,27,15.5z M28.6,15.7c-0.1,0-0.2,0.1-0.4,0.1
		c1.2,3.9,2.5,7.8,3.7,11.7c0.1,0,0.2-0.1,0.4-0.1c-0.1-0.6-0.2-1.3-0.3-1.9c-0.2-0.9-0.6-1.8-0.8-2.7c-0.1-0.5,0-1.1,0-1.6
		c-0.4-0.6-0.8-1.1-1-1.6c-0.4-0.8-0.6-1.8-0.9-2.6C29.1,16.5,28.8,16.1,28.6,15.7z"/>
	<path class="st0" d="M90.2,29.7c0.4,0,0.8,0.2,1.2,0c0.4-0.2,0.9-0.5,1.1-0.8c0.7-1.7,1.2-3.5,1.8-5.3c0.3-1,0.4-1.9-0.7-2.5
		c1.5-0.5,2-1.7,2.4-3c0.3-1.1,0.7-2.2,1-3.3c0.3-0.9-0.1-1.4-1.1-1.2c-0.2,0-0.4,0.1-0.6,0.1c-0.3-0.7-0.1-1.3,0.5-1.5
		c0.4-0.2,0.9-0.3,1.3-0.2c0.8,0.2,1.6,0,2.3,0c1.3,0,2.6,0,3.8,0c0.9,0,1.3,0.5,1.2,1.3c0,0-0.1,0.1-0.1,0.1
		c-1.5-0.1-1.9,0.4-1.4,1.8c0.3,1,0.7,2,1,3.1c0.3,1.3,0.8,2.4,2.2,2.8c-0.3,0.4-0.8,0.8-0.9,1.3c-0.1,0.4,0.2,1,0.3,1.4
		c0.5,1.5,1.1,3,1.6,4.4c0.6,1.5,0.8,1.7,2.3,1.5c0.2,0.9-0.3,1.6-1.3,1.5c-1-0.1-2,0-3,0c-0.8,0-1.7-0.1-2.5,0
		c-1.2,0.2-1.8-0.5-1.7-1.4c0,0,0.1-0.1,0.1-0.1c1.5,0.3,1.7,0.1,1.3-1.3c-0.6-2-0.6-2-2.7-2c-1.3,0-2.7,0-4,0
		c-0.4,0-0.6,0.1-0.7,0.5c-0.1,0.5-0.3,1-0.4,1.5c-0.3,0.9,0.1,1.4,1,1.4c0.3,0,0.7-0.1,1-0.1c0.3,0.9-0.2,1.5-1.3,1.5
		c-1,0-2-0.2-3-0.2c-0.3,0-0.6,0.2-0.9,0.2C90.5,31.3,90,30.7,90.2,29.7z M101.3,24.6c-0.9-3.1-1.8-6.1-2.7-9.1c-0.1,0-0.1,0-0.2,0
		c-0.9,3-1.8,6-2.7,9.1C97.7,24.6,99.4,24.6,101.3,24.6z M100.2,15.7c-0.1,0-0.2,0.1-0.3,0.1c1.2,3.9,2.5,7.8,3.7,11.7
		c0.1,0,0.2,0,0.3-0.1c-0.1-0.5,0-1-0.2-1.5c-0.2-0.9-0.5-1.8-0.8-2.7c-0.2-0.7-0.4-1.4,0-1.9c-0.4-0.5-0.8-0.9-1-1.4
		c-0.4-1-0.7-2-1.1-3C100.7,16.5,100.4,16.1,100.2,15.7z"/>
	<path class="st0" d="M138.2,29.6c0.3,0.1,0.4,0.1,0.6,0.1c0.9,0.1,1.2-0.2,0.9-1.1c-0.2-0.8-0.3-1.8-0.8-2.2
		c-0.5-0.4-1.5-0.1-2.3-0.1c-1.2,0-2.4,0-3.6,0c-0.4,0-0.7,0.1-0.8,0.6c-0.1,0.5-0.3,1-0.4,1.4c-0.3,0.9,0.1,1.4,1.1,1.5
		c0.3,0,0.6-0.1,1-0.1c0.3,0.8-0.1,1.5-1.1,1.5c-1,0-2-0.2-3.1-0.2c-0.3,0-0.5,0.1-0.8,0.2c-1.1,0.2-1.7-0.4-1.5-1.4
		c0,0,0.1-0.1,0.1-0.1c1.7,0.2,1.9,0.1,2.4-1.5c0.5-1.6,1-3.1,1.5-4.7c0.3-0.9,0.3-1.7-0.8-2.3c1.6-0.6,2.1-2,2.5-3.4
		c0.3-1,0.6-2,0.9-3c0.3-0.9-0.1-1.3-1-1.2c-0.2,0-0.4,0.1-0.6,0.1c-0.3-0.8,0-1.5,0.8-1.6c0.8-0.1,1.6,0.4,2.3,0.2
		c0.8-0.2,1.5-0.5,2.2-0.2c0.5,0.2,1,0.1,1.5,0c0.6-0.1,1.2-0.1,1.8,0c0.6,0.1,0.8,0.6,0.7,1.3c-0.2,0-0.4,0-0.6-0.1
		c-0.8,0-1.3,0.6-1.1,1.3c0.5,1.6,0.9,3.3,1.6,4.9c0.3,0.7,1.1,1.2,1.7,1.8c-1,0.8-1,0.9-0.5,2.3c0.6,1.6,1.2,3.2,1.8,4.8
		c0.5,1.4,0.8,1.5,2.2,1.3c0.3,0.8-0.1,1.5-0.9,1.4c-1.3-0.1-2.5,0.1-3.8,0c-0.5,0-1-0.1-1.6,0c-0.5,0.1-1.1,0-1.6-0.1
		C138.2,30.7,138.1,30.2,138.2,29.6z M132.9,24.6c1.9,0,3.7,0,5.6,0c-0.9-3.1-1.8-6.1-2.7-9.1c-0.1,0-0.1,0-0.2,0
		C134.7,18.5,133.8,21.5,132.9,24.6z M137.4,15.7c-0.1,0-0.2,0.1-0.3,0.1c1.1,3.9,2.4,7.8,3.9,11.6c0.1-0.6,0-1.3-0.1-1.9
		c-0.2-0.9-0.6-1.8-0.8-2.7c-0.1-0.6,0-1.2,0-1.6c-0.3-0.5-0.8-1-1-1.5c-0.4-0.9-0.6-1.9-1-2.8C137.9,16.5,137.6,16.1,137.4,15.7z"
		/>
	<path class="st0" d="M48,13.4c-0.2-1,0.3-1.6,1.3-1.5c1.3,0.1,2.6,0.1,3.9,0c1-0.1,1.5,0.5,1.3,1.4c-0.4,0-0.7-0.1-1.1-0.1
		c-0.9,0-1.3,0.4-1.3,1.3c0,1.5,0,3,0,4.4c0,0.9,0.3,1.5,1.1,1.9c0.1,0.1,0.2,0.2,0.4,0.2c-1.4,1.2-1.4,1.2-1.4,3.1
		c0,0.6,0,1.1,0,1.7c0,0.8,0,1.5,0.8,2c-2.9,3.2-6.4,4.2-10.4,2.9c-2.5-0.8-3.5-2.3-3.6-4.9c0-0.7,0-1.4,0-2c0-1.6,0-1.6-1.4-2.6
		c0.2-0.1,0.3-0.2,0.5-0.3c0.6-0.4,0.9-0.9,0.9-1.6c0-1.4,0-2.9,0-4.3c0-1.2-0.6-1.7-1.8-1.6c-0.1,0-0.2,0-0.4,0.1
		c-0.3-0.5-0.1-1,0.4-1.1c0.7-0.2,1.4-0.2,2.1-0.2c0.4,0,0.7,0,1.1,0c0.7,0.1,1.5,0.2,2.2,0.2c0.7,0,1.5-0.2,2.2-0.2
		c0.6,0.1,1.1,0.4,1,1.2c-0.1,0-0.1,0.1-0.2,0.1c-1.8-0.1-2.1,0.2-2.1,2c0,1,0,2,0,3c-0.1,1.2,0,2.3,1.6,2.8
		c-1.7,0.5-1.7,1.6-1.6,2.8c0,0.8,0,1.6,0,2.4c0,1.6,1.2,2.8,2.7,3.2c1.6,0.3,3.4-0.5,4-1.9c0.2-0.4,0.2-0.8,0.2-1.2
		c0-1.1,0-2.2,0-3.3c0-0.8-0.2-1.4-1-1.8c-0.1-0.1-0.2-0.2-0.5-0.3c1.6-0.5,1.5-1.7,1.5-2.9c0-1.1,0-2.2,0-3.3
		c0-1.3-0.5-1.7-1.8-1.6C48.4,13.3,48.2,13.4,48,13.4z M39.5,21.1c0.2,0.4,0.4,0.9,0.5,1.3c0.1,1.2,0.1,2.5,0.1,3.7
		c0,0.4,0.2,0.9,0.3,1.3c0.1,0,0.2,0,0.2-0.1c0-3.6,0-7.3,0-10.9c0-0.3-0.2-0.5-0.4-0.8c-0.1,0-0.2,0-0.3,0.1c0,1.3,0,2.6,0,3.9
		C39.9,20.2,39.7,20.7,39.5,21.1z"/>
	<path class="st0" d="M158.7,11.5c0.8,0.2,1.2,0.8,1,1.7c0,0.3,0,0.6,0,0.8c0,0.2,0.1,0.4,0.1,0.6c-0.2,0.9-0.3,1.8-0.6,2.6
		c-0.2,0.7-0.8,0.8-1.6,0.5c0-0.1,0-0.3,0-0.4c0.3-2.4-1.7-4.2-4.1-3.6c-1.5,0.4-2,2.1-0.9,3.2c0.6,0.6,1.4,1.3,2.2,1.6
		c0.5,0.2,1.2,0,1.9,0c-0.5,1,0.2,1.5,0.9,2.1c0.6,0.6,1.2,1.2,1.7,1.8c2.3,2.9,1.4,6.7-1.9,8.3c-2.1,1-4.3,1-6.4,0.2
		c-0.5-0.2-0.8-0.2-1.2,0.1c-0.4,0.3-0.9,0.4-1.4,0.5c-0.4,0.1-0.8-0.1-0.6-0.7c0.2-0.5,0.1-0.9-0.2-1.4c-0.5-0.6-0.3-1.3,0-2
		c0.2-0.3,0.2-0.7,0.2-1c-0.1-0.9,0.1-1.7,0.8-2.2c0.2-0.2,0.6-0.3,0.9-0.3c0.4,0,0.6,0.1,0.4,0.6c-0.6,1.4-0.3,2.8,0.7,3.9
		c0.9,1.2,2.3,1.5,3.7,1.3c1-0.2,1.7-0.7,2.1-1.7c0.3-1,0.2-1.9-0.5-2.6c-0.6-0.6-1.3-1.1-2-1.6c-0.9-0.7-1.8-0.9-2.9-0.2
		c0.4-1-0.2-1.4-0.7-2c-1.2-1.1-2.2-2.3-2.4-3.9c-0.4-3,1.6-5.4,4.7-5.6c1.2-0.1,2.4,0.2,3.6,0.4c0.3,0,0.5,0.2,0.8,0.2
		C158.1,12.6,158.3,12.5,158.7,11.5z M157.9,27.4c0.1,0,0.2,0,0.3,0c0.1-0.4,0.2-0.9,0.3-1.3c0-1-0.4-1.8-1.2-2.3
		c-1.2-1-2.5-1.9-3.8-2.8c-1.8-1.3-3.5-2.8-4-5.2c-0.2,0.2-0.3,0.5-0.3,0.7c0.1,0.7,0.2,1.4,0.6,2c0.6,0.9,1.4,1.5,2.1,2.3
		c0.3,0.3,0.5,0.7,0.7,1.2c1.4-0.2,2.4,1,3.5,1.8C157.4,24.6,158,25.8,157.9,27.4z"/>
	<path class="st0" d="M65.9,19c0.1-0.4,0.1-0.8,0.2-1.2c-0.7-0.2-1.5-0.1-1.6-1.1c0.1,0,0.2-0.1,0.2-0.1c0.7,0,1.4-0.3,1.6-1
		c0.2-0.8-0.2-1.3-0.8-1.8c-2.1-1.5-4.7-0.3-4.9,2.2c-0.1,1.1,0,2.2,0,3.2c0,0.8,0.4,1.4,1.3,1.8c-1.6,0.8-1.3,2.2-1.3,3.4
		c0,0.7,0,1.4,0,2.1c0.2,2,1.6,3.1,3.8,2.9c1.9-0.2,3.2-1.8,2.9-3.7c0-0.3-0.5-0.7,0.1-0.9c0.5-0.2,1.3,0,1.5,0.5
		c0.2,0.4,0.2,0.8,0.2,1.2c-0.1,1.5-0.9,2.6-2.1,3.4c-3.3,2.3-8.3,1.3-10.5-2.2c-0.8-1.3-1.2-2.7-1.4-4.2c-0.1-1-0.3-1.9-1.2-2.6
		c1-0.5,1.1-1.5,1.3-2.4c0.8-4.9,5-7.8,9.8-6.7c2.1,0.5,3.5,1.7,4.1,3.9c0.1,0.5,0.4,1,0.7,1.7c-0.3,0.1-0.7,0.4-1.1,0.4
		c-0.5,0-0.7,0.1-1,0.5C67.2,18.9,66.6,19.1,65.9,19z M57.9,15.7c-0.1,0-0.1,0-0.2-0.1c-0.2,0.3-0.5,0.6-0.6,0.9
		c-0.3,1.1-0.5,2.1-0.8,3.2c-0.1,0.5-0.3,0.9-0.5,1.4c0.1,0.4,0.3,0.9,0.4,1.4c0.3,1.2,0.5,2.5,0.8,3.7c0.1,0.5,0.5,0.9,0.7,1.4
		c0.1,0,0.2-0.1,0.3-0.1C56.8,23.6,56.9,19.7,57.9,15.7z"/>
</g>
</svg>
